<svg width="0" height="0" class="hidden">
    <symbol
            fill="none"
            xmlns="http://www.w3.org/2000/svg"
            viewBox="0 0 140 44"
            id="logo">
        <path d="M120.406 36.0186V35.3521H121.42V40.0457H120.406V39.3698C120.025 39.9017 119.477 40.1677 118.764 40.1677C118.119 40.1677 117.568 39.9299 117.111 39.4543C116.655 38.9787 116.426 38.3935 116.426 37.6989C116.426 37.0043 116.655 36.4191 117.111 35.9435C117.568 35.4679 118.119 35.2301 118.764 35.2301C119.477 35.2301 120.025 35.4929 120.406 36.0186ZM117.862 38.7784C118.144 39.06 118.498 39.2008 118.923 39.2008C119.349 39.2008 119.702 39.06 119.984 38.7784C120.266 38.4905 120.406 38.1307 120.406 37.6989C120.406 37.2671 120.266 36.9104 119.984 36.6288C119.702 36.3409 119.349 36.197 118.923 36.197C118.498 36.197 118.144 36.3409 117.862 36.6288C117.581 36.9104 117.44 37.2671 117.44 37.6989C117.44 38.1244 117.581 38.4843 117.862 38.7784ZM124.695 35.2301C125.24 35.2301 125.674 35.4053 126 35.7558C126.332 36.1 126.497 36.5693 126.497 37.1638V40.0457H125.484V37.2671C125.484 36.9166 125.39 36.6475 125.202 36.4598C125.014 36.2721 124.758 36.1782 124.432 36.1782C124.063 36.1782 123.772 36.294 123.559 36.5255C123.346 36.7508 123.24 37.0856 123.24 37.5299V40.0457H122.226V35.3521H123.24V35.9529C123.553 35.471 124.038 35.2301 124.695 35.2301ZM129.429 40.1677C128.722 40.1677 128.13 39.9299 127.655 39.4543C127.185 38.9724 126.951 38.3873 126.951 37.6989C126.951 36.998 127.185 36.4129 127.655 35.9435C128.13 35.4679 128.722 35.2301 129.429 35.2301C129.886 35.2301 130.302 35.3396 130.677 35.5587C131.053 35.7777 131.334 36.0718 131.522 36.441L130.649 36.9479C130.543 36.7226 130.38 36.5474 130.161 36.4223C129.948 36.2908 129.701 36.2251 129.419 36.2251C129.006 36.2251 128.659 36.3659 128.378 36.6475C128.102 36.9354 127.964 37.2859 127.964 37.6989C127.964 38.1119 128.102 38.4624 128.378 38.7502C128.659 39.0319 129.006 39.1727 129.419 39.1727C129.695 39.1727 129.942 39.1101 130.161 38.9849C130.386 38.8535 130.555 38.6751 130.668 38.4499L131.541 38.9474C131.341 39.3229 131.05 39.6201 130.668 39.8391C130.292 40.0582 129.879 40.1677 129.429 40.1677ZM135.796 39.4543C135.32 39.9299 134.735 40.1677 134.04 40.1677C133.346 40.1677 132.76 39.9299 132.285 39.4543C131.803 38.9724 131.562 38.3873 131.562 37.6989C131.562 37.0105 131.803 36.4254 132.285 35.9435C132.76 35.4679 133.346 35.2301 134.04 35.2301C134.735 35.2301 135.32 35.4679 135.796 35.9435C136.277 36.4254 136.518 37.0105 136.518 37.6989C136.518 38.3873 136.277 38.9724 135.796 39.4543ZM132.576 37.6989C132.576 38.1244 132.717 38.478 132.998 38.7596C133.28 39.0412 133.627 39.182 134.04 39.182C134.453 39.182 134.801 39.0412 135.082 38.7596C135.364 38.478 135.505 38.1244 135.505 37.6989C135.505 37.2733 135.364 36.9198 135.082 36.6382C134.801 36.3565 134.453 36.2157 134.04 36.2157C133.627 36.2157 133.28 36.3565 132.998 36.6382C132.717 36.9198 132.576 37.2733 132.576 37.6989ZM138.073 35.3521V36.1406C138.33 35.5587 138.812 35.2677 139.519 35.2677V36.3659C139.137 36.3409 138.799 36.4348 138.505 36.6475C138.217 36.8541 138.073 37.1983 138.073 37.6801V40.0457H137.06V35.3521H138.073Z" fill="#858D97"></path>
        <path d="M14.426 18.977H27.0174V20.7038C27.0174 24.1574 25.8781 26.9875 23.5997 29.1939C21.3453 31.3764 18.3713 32.4677 14.6779 32.4677C10.7926 32.4677 7.57877 31.2085 5.03653 28.6903C2.51826 26.172 1.25913 23.0782 1.25913 19.4087C1.25913 15.7632 2.51826 12.6813 5.03653 10.1631C7.57877 7.62082 10.7206 6.34969 14.462 6.34969C16.7884 6.34969 18.9229 6.88932 20.8656 7.96858C22.8323 9.02385 24.3552 10.4748 25.4345 12.3216L21.8729 14.3722C21.2014 13.149 20.2061 12.1777 18.887 11.4582C17.5679 10.7387 16.0929 10.3789 14.462 10.3789C11.8238 10.3789 9.65334 11.2423 7.95052 12.9691C6.24769 14.7199 5.39628 16.8784 5.39628 19.4447C5.39628 22.0349 6.24769 24.1814 7.95052 25.8842C9.70131 27.587 11.9558 28.4385 14.7138 28.4385C16.9203 28.4385 18.7311 27.9228 20.1461 26.8915C21.5611 25.8602 22.4605 24.4572 22.8442 22.6824H14.426V18.977ZM46.4847 24.6611H32.1666C32.4544 26.0041 33.1019 27.0474 34.1093 27.7909C35.1405 28.5344 36.4117 28.9061 37.9226 28.9061C39.9612 28.9061 41.5081 28.1626 42.5634 26.6757L45.7652 28.5464C44.0144 31.1606 41.3882 32.4677 37.8866 32.4677C34.9846 32.4677 32.6223 31.5803 30.7995 29.8055C29.0008 28.0068 28.1014 25.7403 28.1014 23.0062C28.1014 20.344 28.9888 18.1016 30.7636 16.2788C32.5144 14.4561 34.7928 13.5447 37.5988 13.5447C40.213 13.5447 42.3716 14.4681 44.0744 16.3148C45.7772 18.1615 46.6286 20.404 46.6286 23.0422C46.6286 23.5218 46.5806 24.0615 46.4847 24.6611ZM32.1306 21.4952H42.7073C42.4435 20.0802 41.8439 18.989 40.9086 18.2215C39.9972 17.454 38.882 17.0703 37.5629 17.0703C36.1239 17.0703 34.9247 17.466 33.9654 18.2575C33.006 19.0489 32.3944 20.1282 32.1306 21.4952ZM58.0833 14.0124V17.7538H53.6224V26.3879C53.6224 27.1314 53.7903 27.671 54.1261 28.0068C54.4618 28.3185 54.9535 28.4984 55.601 28.5464C56.2726 28.5704 57.1 28.5584 58.0833 28.5104V32C55.1094 32.3598 52.9749 32.1079 51.6798 31.2445C50.3846 30.3571 49.7371 28.7383 49.7371 26.3879V17.7538H46.4274V14.0124H49.7371V10.1271L53.6224 8.97588V14.0124H58.0833ZM70.7047 32H65.92L58.7969 6.81737H63.1499L68.4383 26.4958L74.1583 6.81737H77.9717L83.6558 26.4958L88.9441 6.81737H93.2971L86.1741 32H81.3894L76.065 13.6167L70.7047 32ZM107.919 29.7336C106.097 31.5563 103.854 32.4677 101.192 32.4677C98.5298 32.4677 96.2874 31.5563 94.4646 29.7336C92.6179 27.8868 91.6946 25.6444 91.6946 23.0062C91.6946 20.368 92.6179 18.1256 94.4646 16.2788C96.2874 14.4561 98.5298 13.5447 101.192 13.5447C103.854 13.5447 106.097 14.4561 107.919 16.2788C109.766 18.1256 110.689 20.368 110.689 23.0062C110.689 25.6444 109.766 27.8868 107.919 29.7336ZM95.5799 23.0062C95.5799 24.6371 96.1195 25.9921 97.1988 27.0714C98.278 28.1507 99.6091 28.6903 101.192 28.6903C102.775 28.6903 104.106 28.1507 105.185 27.0714C106.265 25.9921 106.804 24.6371 106.804 23.0062C106.804 21.3753 106.265 20.0203 105.185 18.941C104.106 17.8618 102.775 17.3221 101.192 17.3221C99.6091 17.3221 98.278 17.8618 97.1988 18.941C96.1195 20.0203 95.5799 21.3753 95.5799 23.0062ZM116.649 14.0124V17.0343C117.632 14.8039 119.479 13.6886 122.189 13.6886V17.8977C120.726 17.8018 119.431 18.1615 118.304 18.977C117.201 19.7684 116.649 21.0875 116.649 22.9343V32H112.764V14.0124H116.649ZM131.32 22.8263L139.522 32H134.881L127.506 23.6897V32H123.621V6.81737H127.506V21.9629L134.485 14.0124H139.234L131.32 22.8263Z" fill="#2F3C4D"></path>
    </symbol>
    <symbol
            fill="none"
            xmlns="http://www.w3.org/2000/svg"
            viewBox="0 0 23 5"
            id="dots">
        <circle cx="2.0641" cy="2.0641" r="2.0641" fill="#858D97"></circle>
        <circle cx="20.9359" cy="2.0641" r="2.0641" fill="#858D97"></circle>
        <circle cx="11.5" cy="2.0641" r="2.0641" fill="#858D97"></circle>
    </symbol>
    <symbol
        id="close"
        fill="none"
        viewBox="0 0 20 20"
        xmlns="http://www.w3.org/2000/svg"
    >
        <path
          d="M1.18836 15.9019L0.0982327 14.8117L6.63897 8.271L0.0982327 1.73026L1.18836 0.640136L7.72909 7.18087L14.2698 0.640136L15.36 1.73026L8.81922 8.271L15.36 14.8117L14.2698 15.9019L7.72909 9.36112L1.18836 15.9019Z"
          fill="#858D97"
        />
    </symbol>
    <symbol 
        id="success"         
        fill="none"
        viewBox="0 0 20 20"
        xmlns="http://www.w3.org/2000/svg">
        <path
          d="M9.97916 0.125C12.6037 0.125 15.1207 1.16759 16.9766 3.02342C18.8324 4.87925 19.875 7.39629 19.875 10.0208C19.875 12.6454 18.8324 15.1624 16.9766 17.0182C15.1207 18.8741 12.6037 19.9167 9.97916 19.9167C7.35462 19.9167 4.83758 18.8741 2.98175 17.0182C1.12592 15.1624 0.0833282 12.6454 0.0833282 10.0208C0.0833282 7.39629 1.12592 4.87925 2.98175 3.02342C4.83758 1.16759 7.35462 0.125 9.97916 0.125ZM9.97916 1.16667C7.63089 1.16667 5.3788 2.09951 3.71832 3.75999C2.05784 5.42047 1.12499 7.67256 1.12499 10.0208C1.12499 12.3691 2.05784 14.6212 3.71832 16.2817C5.3788 17.9421 7.63089 18.875 9.97916 18.875C12.3274 18.875 14.5795 17.9421 16.24 16.2817C17.9005 14.6212 18.8333 12.3691 18.8333 10.0208C18.8333 7.67256 17.9005 5.42047 16.24 3.75999C14.5795 2.09951 12.3274 1.16667 9.97916 1.16667ZM9.45833 14.7083V12.625H10.5V14.7083H9.45833ZM9.45833 10.5417V5.33333H10.5V10.5417H9.45833Z"
          fill="#639E5F"/>
    </symbol>
    <symbol id="error" fill="none" viewBox="0 0 20 20" xmlns="http://www.w3.org/2000/svg">
        <path
          d="M9.97921 0.125C12.6037 0.125 15.1208 1.16759 16.9766 3.02342C18.8324 4.87925 19.875 7.39629 19.875 10.0208C19.875 12.6454 18.8324 15.1624 16.9766 17.0182C15.1208 18.8741 12.6037 19.9167 9.97921 19.9167C7.35467 19.9167 4.83762 18.8741 2.9818 17.0182C1.12597 15.1624 0.083374 12.6454 0.083374 10.0208C0.083374 7.39629 1.12597 4.87925 2.9818 3.02342C4.83762 1.16759 7.35467 0.125 9.97921 0.125V0.125ZM9.97921 1.16667C7.63094 1.16667 5.37884 2.09951 3.71837 3.75999C2.05789 5.42047 1.12504 7.67256 1.12504 10.0208C1.12504 12.3691 2.05789 14.6212 3.71837 16.2817C5.37884 17.9421 7.63094 18.875 9.97921 18.875C12.3275 18.875 14.5796 17.9421 16.24 16.2817C17.9005 14.6212 18.8334 12.3691 18.8334 10.0208C18.8334 7.67256 17.9005 5.42047 16.24 3.75999C14.5796 2.09951 12.3275 1.16667 9.97921 1.16667ZM9.45837 14.7083V12.625H10.5V14.7083H9.45837ZM9.45837 10.5417V5.33333H10.5V10.5417H9.45837Z"
          fill="#F54D2E"
        />
    </symbol>
    <symbol id="eye" fill="none" viewBox="0 0 29 19" xmlns="http://www.w3.org/2000/svg">
        <path
          d="M28.7281 9.17157C28.6796 9.0747 27.6746 6.83451 25.4223 4.59433C23.17 2.35415 19.7552 0.0170898 14.4999 0.0170898C9.24453 0.0170898 5.66023 2.49946 3.57747 4.59433C1.4947 6.6892 0.320121 9.0747 0.271685 9.17157C0.229417 9.26262 0.20752 9.3618 0.20752 9.46219C0.20752 9.56257 0.229417 9.66175 0.271685 9.7528C0.320121 9.84968 1.32518 12.0899 3.57747 14.33C5.82976 16.5702 9.24453 18.9073 14.4999 18.9073C19.7552 18.9073 23.3395 16.4249 25.4223 14.33C27.5051 12.2352 28.6796 9.84968 28.7281 9.7528C28.7703 9.66175 28.7922 9.56257 28.7922 9.46219C28.7922 9.3618 28.7703 9.26262 28.7281 9.17157ZM14.4999 17.4542C10.6976 17.4542 7.37973 16.0738 4.64307 13.3492C3.48911 12.2058 2.51352 10.8955 1.749 9.46219C2.51352 8.02885 3.48911 6.71855 4.64307 5.57517C7.37973 2.85062 10.6976 1.47018 14.4999 1.47018C18.3021 1.47018 21.62 2.85062 24.3567 5.57517C25.5106 6.71855 26.4862 8.02885 27.2508 9.46219C26.4758 10.9395 22.613 17.4542 14.4999 17.4542ZM14.4999 3.892C13.3982 3.892 12.3213 4.21869 11.4052 4.83075C10.4892 5.44281 9.77529 6.31275 9.3537 7.33057C8.9321 8.34839 8.82179 9.46837 9.03672 10.5489C9.25165 11.6294 9.78216 12.6219 10.5612 13.4009C11.3402 14.1799 12.3327 14.7104 13.4132 14.9253C14.4937 15.1403 15.6137 15.03 16.6315 14.6084C17.6493 14.1868 18.5193 13.4728 19.1313 12.5568C19.7434 11.6408 20.0701 10.5639 20.0701 9.46219C20.0701 7.98488 19.4832 6.56808 18.4386 5.52347C17.394 4.47886 15.9772 3.892 14.4999 3.892ZM14.4999 13.5793C13.6856 13.5793 12.8896 13.3378 12.2125 12.8854C11.5355 12.433 11.0078 11.79 10.6962 11.0377C10.3846 10.2854 10.303 9.45762 10.4619 8.65898C10.6208 7.86034 11.0129 7.12675 11.5887 6.55096C12.1644 5.97518 12.898 5.58306 13.6967 5.4242C14.4953 5.26534 15.3231 5.34688 16.0754 5.65849C16.8277 5.9701 17.4707 6.4978 17.9231 7.17485C18.3755 7.8519 18.617 8.6479 18.617 9.46219C18.6138 10.5531 18.179 11.5985 17.4076 12.3699C16.6362 13.1413 15.5908 13.5761 14.4999 13.5793Z"
          fill="#858D97"
        />
    </symbol>
    <symbol id="wallet" fill="none" viewBox="0 0 21 20" xmlns="http://www.w3.org/2000/svg">
        <path
            d="M3.16663 0.824341C2.33782 0.824341 1.54297 1.13827 0.956917 1.69706C0.370866 2.25585 0.041626 3.01374 0.041626 3.80399V16.7158C0.041626 17.5061 0.370866 18.264 0.956917 18.8227C1.54297 19.3815 2.33782 19.6955 3.16663 19.6955H16.7083C17.5371 19.6955 18.332 19.3815 18.918 18.8227C19.5041 18.264 19.8333 17.5061 19.8333 16.7158V14.9578C20.1602 14.679 20.4219 14.3377 20.6014 13.9561C20.7809 13.5745 20.8741 13.1612 20.875 12.7429V7.77686C20.8741 7.35865 20.7809 6.9453 20.6014 6.5637C20.4219 6.1821 20.1602 5.84079 19.8333 5.56199V3.80399C19.8333 3.01374 19.5041 2.25585 18.918 1.69706C18.332 1.13827 17.5371 0.824341 16.7083 0.824341H3.16663ZM3.16663 1.81756H16.7083C17.2608 1.81756 17.7907 2.02684 18.1814 2.39937C18.5721 2.7719 18.7916 3.27716 18.7916 3.80399V4.97003C18.4572 4.85643 18.105 4.79798 17.75 4.79721H11.5C10.6712 4.79721 9.8763 5.11114 9.29025 5.66993C8.7042 6.22872 8.37496 6.98661 8.37496 7.77686V12.7429C8.37496 13.5332 8.7042 14.2911 9.29025 14.8499C9.8763 15.4087 10.6712 15.7226 11.5 15.7226H17.75C18.105 15.7218 18.4572 15.6634 18.7916 15.5498V16.7158C18.7916 17.2426 18.5721 17.7479 18.1814 18.1204C17.7907 18.493 17.2608 18.7022 16.7083 18.7022H3.16663C2.61409 18.7022 2.08419 18.493 1.69349 18.1204C1.30279 17.7479 1.08329 17.2426 1.08329 16.7158V3.80399C1.08329 3.27716 1.30279 2.7719 1.69349 2.39937C2.08419 2.02684 2.61409 1.81756 3.16663 1.81756ZM11.5 5.79043H17.75C18.3025 5.79043 18.8324 5.99971 19.2231 6.37224C19.6138 6.74477 19.8333 7.25002 19.8333 7.77686V12.7429C19.8333 13.2698 19.6138 13.775 19.2231 14.1476C18.8324 14.5201 18.3025 14.7294 17.75 14.7294H11.5C10.9474 14.7294 10.4175 14.5201 10.0268 14.1476C9.63612 13.775 9.41663 13.2698 9.41663 12.7429V7.77686C9.41663 7.25002 9.63612 6.74477 10.0268 6.37224C10.4175 5.99971 10.9474 5.79043 11.5 5.79043ZM14.1041 7.77686C13.4135 7.77686 12.7511 8.03846 12.2627 8.50413C11.7743 8.96979 11.5 9.60136 11.5 10.2599C11.5 10.9184 11.7743 11.55 12.2627 12.0157C12.7511 12.4813 13.4135 12.7429 14.1041 12.7429C14.7948 12.7429 15.4572 12.4813 15.9456 12.0157C16.4339 11.55 16.7083 10.9184 16.7083 10.2599C16.7083 9.60136 16.4339 8.96979 15.9456 8.50413C15.4572 8.03846 14.7948 7.77686 14.1041 7.77686ZM14.1041 8.77008C14.3093 8.77008 14.5125 8.80861 14.7021 8.88348C14.8916 8.95835 15.0639 9.06809 15.209 9.20644C15.3541 9.34478 15.4692 9.50902 15.5477 9.68977C15.6262 9.87052 15.6666 10.0643 15.6666 10.2599C15.6666 10.4555 15.6262 10.6493 15.5477 10.83C15.4692 11.0108 15.3541 11.175 15.209 11.3134C15.0639 11.4517 14.8916 11.5615 14.7021 11.6363C14.5125 11.7112 14.3093 11.7497 14.1041 11.7497C13.6897 11.7497 13.2923 11.5928 12.9993 11.3134C12.7062 11.034 12.5416 10.655 12.5416 10.2599C12.5416 9.86477 12.7062 9.48583 12.9993 9.20644C13.2923 8.92704 13.6897 8.77008 14.1041 8.77008Z"
            fill="#2F3C4D"
          />
    </symbol>
</svg>
